<svg width="65" height="64" viewBox="0 0 65 64" fill="none" xmlns="http://www.w3.org/2000/svg">
<rect x="0.339844" width="64" height="64" rx="16" fill="#E6F3FF"/>
<path d="M40.3405 47.9998V51.3332C40.3405 52.4378 39.4451 53.3332 38.3405 53.3332H15.6738C14.5692 53.3332 13.6738 52.4378 13.6738 51.3332V20.6665C13.6738 19.5619 14.5692 18.6665 15.6738 18.6665H21.6738V43.3332C21.6738 45.9064 23.7672 47.9998 26.3405 47.9998H40.3405ZM40.3405 19.3332V10.6665H26.3405C25.2359 10.6665 24.3405 11.5619 24.3405 12.6665V43.3332C24.3405 44.4378 25.2359 45.3332 26.3405 45.3332H49.0072C50.1117 45.3332 51.0072 44.4378 51.0072 43.3332V21.3332H42.3405C41.2405 21.3332 40.3405 20.4332 40.3405 19.3332ZM50.4214 16.7474L44.9262 11.2523C44.5512 10.8772 44.0425 10.6665 43.5121 10.6665H43.0072V18.6665H51.0072V18.1616C51.0072 17.6312 50.7965 17.1225 50.4214 16.7474Z" fill="#012353"/>
</svg>
